<svg xmlns="http://www.w3.org/2000/svg" viewBox="0 0 200 200" width="200" height="200">
  <defs>
    <radialGradient id="dshBg" cx="50%" cy="50%" r="50%">
      <stop offset="0%" stop-color="#140728"/>
      <stop offset="75%" stop-color="#0a0214"/>
      <stop offset="100%" stop-color="#000000"/>
    </radialGradient>
    <linearGradient id="dshNeon" x1="0%" y1="0%" x2="100%" y2="100%">
      <stop offset="0%" stop-color="#A855F7"/>
      <stop offset="50%" stop-color="#06B6D4"/>
      <stop offset="100%" stop-color="#3B82F6"/>
    </linearGradient>
  </defs>

  <circle cx="100" cy="100" r="98" fill="url(#dshBg)"/>
  <circle cx="100" cy="100" r="94" fill="none" stroke="#222222" stroke-width="2"/>
  <circle cx="100" cy="100" r="90" fill="none" stroke="url(#dshNeon)" stroke-width="2.5" stroke-dasharray="7 3"/>

  <!-- Hooded Shadow Silhouette -->
  <path d="M 100 45 C 80 45 68 62 65 85 C 60 115 75 145 100 162 C 125 145 140 115 135 85 C 132 62 120 45 100 45 Z" fill="#080210" stroke="url(#dshNeon)" stroke-width="2"/>
  
  <!-- Glowing Eyes -->
  <polygon points="82,88 92,92 84,95" fill="#06B6D4"/>
  <polygon points="118,88 108,92 116,95" fill="#06B6D4"/>

  <!-- DSH Text -->
  <text x="100" y="118" text-anchor="middle" font-family="Arial Black, Impact, sans-serif" font-weight="900" font-size="28" fill="#ffffff" letter-spacing="3">
    DSH
  </text>
  <text x="100" y="134" text-anchor="middle" font-family="Arial, sans-serif" font-weight="700" font-size="8" fill="#A855F7" letter-spacing="2">
    DARK SHADOW HACKERS
  </text>
</svg>
